<svg width="19" height="19" viewBox="0 0 19 19" fill="none" xmlns="http://www.w3.org/2000/svg">
<path d="M17.8747 4.68828H17.5907V2.98828C17.5907 1.39728 14.0677 0.147278 9.63472 0.147278C5.20172 0.147278 1.67873 1.39728 1.67873 2.98828V4.68828H1.39473C1.16876 4.68828 0.952052 4.77804 0.792271 4.93782C0.63249 5.09761 0.542725 5.31431 0.542725 5.54028V8.38128C0.542989 8.60716 0.632841 8.82372 0.792564 8.98344C0.952288 9.14316 1.16884 9.23301 1.39473 9.23328H1.67873V14.9143C1.67833 15.0638 1.70742 15.2119 1.76432 15.3501C1.82122 15.4883 1.90482 15.614 2.01033 15.7198C2.11584 15.8257 2.2412 15.9098 2.37923 15.9672C2.51725 16.0245 2.66524 16.0541 2.81472 16.0543V17.1913C2.81472 17.4928 2.93451 17.782 3.14774 17.9953C3.36097 18.2085 3.65017 18.3283 3.95173 18.3283H5.08873C5.39028 18.3283 5.67948 18.2085 5.8927 17.9953C6.10593 17.782 6.22573 17.4928 6.22573 17.1913V16.0543H13.0447V17.1913C13.0447 17.4928 13.1645 17.782 13.3777 17.9953C13.591 18.2085 13.8802 18.3283 14.1817 18.3283H15.3147C15.6163 18.3283 15.9055 18.2085 16.1187 17.9953C16.3319 17.782 16.4517 17.4928 16.4517 17.1913V16.0543H16.6787C16.7984 16.0555 16.9172 16.0328 17.028 15.9875C17.1388 15.9423 17.2395 15.8754 17.3242 15.7907C17.4088 15.7061 17.4757 15.6054 17.521 15.4946C17.5662 15.3837 17.5889 15.265 17.5877 15.1453V9.23528H17.8717C18.0976 9.23501 18.3142 9.14516 18.4739 8.98544C18.6336 8.82572 18.7235 8.60916 18.7237 8.38328V5.54128C18.7237 5.31531 18.634 5.0986 18.4742 4.93882C18.3144 4.77904 18.0977 4.68928 17.8717 4.68928L17.8747 4.68828ZM6.22472 2.69928C6.22472 2.62395 6.25465 2.55172 6.30791 2.49846C6.36117 2.4452 6.4334 2.41528 6.50872 2.41528H12.7597C12.835 2.41528 12.9073 2.4452 12.9605 2.49846C13.0138 2.55172 13.0437 2.62395 13.0437 2.69928V3.26728C13.0437 3.3426 13.0138 3.41484 12.9605 3.4681C12.9073 3.52136 12.835 3.55128 12.7597 3.55128H6.50872C6.4334 3.55128 6.36117 3.52136 6.30791 3.4681C6.25465 3.41484 6.22472 3.3426 6.22472 3.26728V2.69928ZM4.52473 14.3493C4.26151 14.3502 4.00612 14.2598 3.80214 14.0934C3.59816 13.927 3.45822 13.695 3.40619 13.437C3.35416 13.179 3.39327 12.9109 3.51685 12.6785C3.64043 12.4461 3.84081 12.2637 4.08382 12.1626C4.32683 12.0614 4.59741 12.0477 4.8494 12.1238C5.10139 12.1999 5.31917 12.3611 5.4656 12.5798C5.61202 12.7985 5.67802 13.0613 5.65233 13.3233C5.62664 13.5852 5.51086 13.8302 5.32473 14.0163C5.11247 14.2285 4.8249 14.3482 4.52473 14.3493ZM9.07072 10.3713H5.08773C4.78618 10.3713 4.49697 10.2515 4.28374 10.0383C4.07052 9.82503 3.95073 9.53583 3.95073 9.23428V5.82428C3.95073 5.52272 4.07052 5.23353 4.28374 5.0203C4.49697 4.80707 4.78618 4.68728 5.08773 4.68728H9.06573L9.07072 10.3713ZM10.2077 10.3713V4.68828H14.1857C14.4859 4.69039 14.773 4.81111 14.9845 5.02411C15.196 5.23711 15.3147 5.52511 15.3147 5.82528V9.23528C15.3147 9.53683 15.1949 9.82603 14.9817 10.0393C14.7685 10.2525 14.4793 10.3723 14.1777 10.3723L10.2077 10.3713ZM14.7537 14.3493C14.4905 14.3502 14.2351 14.2598 14.0311 14.0934C13.8272 13.927 13.6872 13.695 13.6352 13.437C13.5832 13.179 13.6223 12.9109 13.7458 12.6785C13.8694 12.4461 14.0698 12.2637 14.3128 12.1626C14.5558 12.0614 14.8264 12.0477 15.0784 12.1238C15.3304 12.1999 15.5482 12.3611 15.6946 12.5798C15.841 12.7985 15.907 13.0613 15.8813 13.3233C15.8556 13.5852 15.7399 13.8302 15.5537 14.0163C15.448 14.122 15.3225 14.2058 15.1844 14.2629C15.0463 14.3201 14.8982 14.3494 14.7487 14.3493H14.7537Z" fill="#FA9233"/>
</svg>
