<svg width="19" height="21" viewBox="0 0 19 21" fill="none" xmlns="http://www.w3.org/2000/svg">
<path d="M18.621 18.9837L18.012 5.15972C18.0046 4.66687 17.8036 4.19672 17.4524 3.8509C17.1011 3.50509 16.6279 3.31141 16.135 3.31173H13.023C12.8997 2.50149 12.4901 1.76227 11.8686 1.22812C11.247 0.693973 10.4546 0.400269 9.635 0.400269C8.81544 0.400269 8.02302 0.693973 7.40144 1.22812C6.77987 1.76227 6.37029 2.50149 6.247 3.31173H3.14001C2.64702 3.31115 2.17365 3.50475 1.82235 3.85062C1.47105 4.19648 1.2701 4.66679 1.263 5.15972L0.651001 18.9827C0.651001 18.9947 0.651001 19.0067 0.651001 19.0177C0.652061 19.5147 0.85032 19.991 1.20224 20.342C1.55416 20.693 2.03098 20.89 2.52801 20.8897H16.748C17.245 20.89 17.7218 20.693 18.0738 20.342C18.4257 19.991 18.6239 19.5147 18.625 19.0177C18.622 19.0077 18.622 18.9997 18.621 18.9837ZM9.633 1.99973C10.0286 2.00077 10.4134 2.12952 10.7299 2.36682C11.0465 2.60411 11.278 2.93727 11.39 3.31672H7.87501C7.98719 2.93719 8.21888 2.604 8.53562 2.36671C8.85236 2.12943 9.23724 2.00072 9.633 1.99973ZM16.745 19.2997H2.525C2.45244 19.3011 2.38223 19.274 2.32935 19.2243C2.27647 19.1746 2.24512 19.1062 2.242 19.0337L2.853 5.21873C2.853 5.20673 2.853 5.19272 2.853 5.18172C2.85326 5.14509 2.86079 5.10887 2.87514 5.07517C2.88949 5.04146 2.91038 5.01094 2.93661 4.98536C2.96283 4.95979 2.99387 4.93967 3.02792 4.92617C3.06198 4.91267 3.09838 4.90606 3.135 4.90672H6.19601V7.81973C6.1856 7.9306 6.19845 8.04242 6.23375 8.14804C6.26905 8.25366 6.326 8.35074 6.40098 8.43308C6.47595 8.51542 6.56729 8.5812 6.66915 8.62621C6.77101 8.67122 6.88114 8.69447 6.9925 8.69447C7.10386 8.69447 7.214 8.67122 7.31586 8.62621C7.41772 8.5812 7.50906 8.51542 7.58403 8.43308C7.659 8.35074 7.71596 8.25366 7.75126 8.14804C7.78655 8.04242 7.79941 7.9306 7.789 7.81973V4.89972H11.457V7.81272C11.457 8.02489 11.5413 8.22838 11.6913 8.37841C11.8414 8.52844 12.0448 8.61272 12.257 8.61272C12.697 8.61272 13.057 7.81272 13.057 7.81272V4.89972H16.138C16.1747 4.89893 16.2112 4.90544 16.2454 4.91888C16.2796 4.93231 16.3107 4.95241 16.3371 4.978C16.3634 5.00359 16.3844 5.03416 16.3988 5.06793C16.4132 5.1017 16.4207 5.138 16.421 5.17472C16.421 5.18672 16.421 5.19872 16.421 5.21072L17.033 19.0267C17.0301 19.0994 16.9989 19.1681 16.946 19.218C16.8931 19.2679 16.8227 19.2951 16.75 19.2937L16.745 19.2997Z" fill="#AAB6FB"/>
<path d="M8.90701 15.0157C8.81173 15.0148 8.71759 14.995 8.63004 14.9574C8.54248 14.9198 8.46326 14.8652 8.397 14.7967L6.94 13.3397C6.80474 13.2045 6.72876 13.021 6.72876 12.8297C6.72876 12.6384 6.80474 12.455 6.94 12.3197C7.07526 12.1844 7.25873 12.1085 7.45001 12.1085C7.6413 12.1085 7.82473 12.1844 7.95999 12.3197L8.90701 13.2667L11.307 10.8667C11.4423 10.7314 11.6257 10.6555 11.817 10.6555C12.0083 10.6555 12.1917 10.7314 12.327 10.8667C12.4623 11.002 12.5382 11.1854 12.5382 11.3767C12.5382 11.568 12.4623 11.7515 12.327 11.8867L9.414 14.8007C9.34774 14.8692 9.26855 14.9238 9.181 14.9614C9.09345 14.999 8.99927 15.0188 8.90399 15.0197L8.90701 15.0157Z" fill="#AAB6FB"/>
</svg>
