<svg width="14" height="18" viewBox="0 0 14 18" fill="none" xmlns="http://www.w3.org/2000/svg">
<path d="M11.2683 1.64908C11.2683 1.32376 11.1501 1.00954 10.9357 0.764928C10.7212 0.52032 10.4251 0.362008 10.1026 0.31949C9.78006 0.276971 9.45307 0.353144 9.18254 0.533815C8.91201 0.714486 8.71641 0.987338 8.63212 1.30154C8.54784 1.61575 8.58063 1.94987 8.72441 2.24169C8.86819 2.5335 9.11312 2.7631 9.41362 2.88771C9.71412 3.01232 10.0497 3.02344 10.3578 2.91902C10.6659 2.81459 10.9255 2.60172 11.0883 2.32008C11.2062 2.11609 11.2682 1.88466 11.2683 1.64908Z" fill="#C3EDD8"/>
<path d="M5.1253 12.1791C5.04991 12.3082 4.9442 12.417 4.8173 12.4961C4.67505 12.5809 4.519 12.6402 4.35628 12.6711C4.33328 12.6711 4.23629 12.6801 4.23629 12.6851V12.8341C4.23629 12.9341 4.25729 13.0341 4.16329 13.0341H3.8733C3.8063 13.0341 3.72929 13.0501 3.72929 12.9341V12.7211C3.58876 12.715 3.4488 12.6996 3.31029 12.6751C3.19394 12.6524 3.08101 12.6147 2.9743 12.5631C2.95527 12.553 2.93975 12.5373 2.92976 12.5182C2.91976 12.4991 2.91577 12.4775 2.9183 12.4561V11.9901C2.91709 11.9703 2.92133 11.9505 2.93055 11.9329C2.93977 11.9153 2.95362 11.9006 2.9706 11.8903C2.98759 11.88 3.00706 11.8745 3.02692 11.8745C3.04678 11.8744 3.06627 11.8798 3.08329 11.8901C3.16606 11.9452 3.255 11.9905 3.34829 12.0251C3.50856 12.0833 3.67777 12.1131 3.84829 12.1131C3.93434 12.1144 4.02025 12.1057 4.10429 12.0871C4.16854 12.0729 4.23004 12.0482 4.28629 12.0141C4.33149 11.9866 4.36926 11.9485 4.39629 11.9031C4.41974 11.8609 4.43181 11.8133 4.4313 11.7651C4.43187 11.7004 4.41153 11.6373 4.3733 11.5851C4.32987 11.5276 4.27672 11.4782 4.21628 11.4391C4.14086 11.3892 4.06161 11.3454 3.97929 11.3081C3.88729 11.2671 3.7883 11.2241 3.6793 11.1811C3.44868 11.0948 3.24268 10.9533 3.07929 10.7691C2.94519 10.6033 2.87432 10.3953 2.87929 10.1821C2.87233 10.022 2.90676 9.86291 2.97929 9.72008C3.04774 9.59241 3.14583 9.48302 3.2653 9.40108C3.39117 9.31502 3.53186 9.25298 3.68029 9.21808C3.70729 9.21108 3.72929 9.20607 3.72929 9.20007V8.96008C3.72929 8.88108 3.7903 8.88307 3.7913 8.88307H4.1793C4.18731 8.88346 4.19516 8.88543 4.20241 8.88885C4.20967 8.89228 4.21618 8.8971 4.22156 8.90305C4.22695 8.90899 4.23112 8.91594 4.23382 8.92349C4.23652 8.93105 4.2377 8.93907 4.2373 8.94708V9.16008C4.38485 9.15984 4.53222 9.17019 4.67829 9.19107C4.80133 9.20702 4.92325 9.23073 5.0433 9.26207C5.0913 9.27807 5.14329 9.32407 5.14329 9.37407V9.80608C5.1403 9.82801 5.13216 9.84892 5.11953 9.8671C5.10689 9.88527 5.09013 9.9002 5.07061 9.91064C5.05109 9.92109 5.02937 9.92675 5.00724 9.92717C4.98511 9.92759 4.96319 9.92276 4.94329 9.91307C4.93729 9.91307 4.90429 9.90608 4.89829 9.90308C4.82996 9.87276 4.75943 9.84769 4.68729 9.82808C4.61646 9.80795 4.54427 9.79291 4.47129 9.78308C4.40502 9.7737 4.33822 9.76869 4.27129 9.76808C4.1906 9.76731 4.11008 9.77569 4.03129 9.79308C3.9668 9.80654 3.90498 9.83052 3.84829 9.86407C3.80189 9.89119 3.76224 9.92845 3.73229 9.97307C3.7048 10.016 3.69054 10.0661 3.69129 10.1171C3.69081 10.1722 3.70683 10.2262 3.7373 10.2721C3.77294 10.3225 3.81689 10.3664 3.86729 10.4021C3.93207 10.4478 4.00066 10.488 4.07229 10.5221C4.15229 10.5611 4.24328 10.6021 4.34328 10.6431C4.47141 10.6961 4.59572 10.7579 4.71529 10.8281C4.8188 10.8883 4.91367 10.9623 4.99729 11.0481C5.07562 11.1285 5.13715 11.2237 5.17829 11.3281C5.22025 11.4457 5.2396 11.5702 5.2353 11.6951C5.24077 11.8632 5.20289 12.0299 5.1253 12.1791ZM7.8083 8.32707L4.96529 3.64607H6.17829C6.2225 3.64607 6.26627 3.63736 6.30711 3.62041C6.34794 3.60346 6.38502 3.57862 6.41624 3.54732C6.44745 3.51601 6.47218 3.47884 6.48901 3.43796C6.50583 3.39708 6.51442 3.35329 6.51429 3.30908V2.49008C6.51442 2.44587 6.50583 2.40207 6.48901 2.36119C6.47218 2.32031 6.44745 2.28315 6.41624 2.25185C6.38502 2.22054 6.34794 2.19569 6.30711 2.17874C6.26627 2.16179 6.2225 2.15308 6.17829 2.15308H0.549293C0.505084 2.15308 0.461309 2.16179 0.420478 2.17874C0.379647 2.19569 0.342561 2.22054 0.311347 2.25185C0.280133 2.28315 0.255405 2.32031 0.238578 2.36119C0.221751 2.40207 0.213163 2.44587 0.213294 2.49008V16.9541C0.210349 17.1207 0.273678 17.2817 0.389365 17.4017C0.505053 17.5217 0.663644 17.5909 0.830298 17.5941H7.28429C7.3669 17.5926 7.44841 17.5749 7.52418 17.542C7.59994 17.5091 7.66848 17.4615 7.72587 17.4021C7.78326 17.3427 7.82838 17.2725 7.85865 17.1956C7.88892 17.1188 7.90375 17.0367 7.90229 16.9541V8.67108C7.90216 8.5509 7.86932 8.43301 7.80729 8.33008" fill="#C3EDD8"/>
<path d="M13.8953 8.17305V16.5081C13.8953 16.7948 13.7814 17.0697 13.5787 17.2724C13.3759 17.4752 13.101 17.5891 12.8143 17.5891C12.5276 17.5891 12.2526 17.4752 12.0499 17.2724C11.8471 17.0697 11.7333 16.7948 11.7333 16.5081V9.52306L11.7223 9.53105L10.6543 5.43106C10.6516 5.42064 10.6458 5.41125 10.6378 5.40405C10.6298 5.39686 10.6198 5.39218 10.6092 5.39058C10.5985 5.38898 10.5877 5.39054 10.5779 5.39507C10.5682 5.39959 10.5599 5.4069 10.5542 5.41606L9.92424 6.36505C9.86041 6.4615 9.76865 6.53616 9.66124 6.57906L7.86125 7.28906C7.79733 7.31424 7.72649 7.31555 7.66167 7.29279C7.59685 7.27002 7.54242 7.22467 7.50829 7.16505L7.36724 6.91705C7.34829 6.88396 7.33622 6.84741 7.33165 6.80955C7.32708 6.7717 7.33015 6.73332 7.34068 6.69667C7.35122 6.66002 7.36902 6.62586 7.39299 6.59621C7.41697 6.56656 7.44664 6.54203 7.48027 6.52406L9.04228 5.69206C9.1697 5.62339 9.26594 5.50852 9.31127 5.37106L9.80626 3.90306C9.86283 3.73422 9.95443 3.57923 10.0751 3.44826C10.1957 3.31728 10.3426 3.21328 10.5063 3.14305L11.0063 2.92906C11.1445 2.87 11.2934 2.84033 11.4437 2.84192C11.594 2.84351 11.7423 2.87632 11.8792 2.93829C12.0161 3.00026 12.1387 3.09003 12.2391 3.20189C12.3394 3.31375 12.4154 3.44525 12.4623 3.58806L13.8393 7.80606C13.8784 7.92618 13.8983 8.05172 13.8982 8.17805" fill="#C3EDD8"/>
</svg>
