<svg width="24" height="20" viewBox="0 0 24 20" fill="none" xmlns="http://www.w3.org/2000/svg">
<path d="M7.91473 9.50223C7.30615 9.64653 6.76518 9.99455 6.38158 10.4886C5.99798 10.9826 5.79479 11.5929 5.80573 12.2182C6.30938 11.6909 6.93977 11.3016 7.63673 11.0872L7.91473 9.50223ZM3.84673 11.3252L2.68673 4.75324C2.67675 4.71989 2.68034 4.68394 2.69673 4.65323C4.81341 3.47766 7.19451 2.86027 9.61573 2.85923H9.78873C10.3024 2.35029 10.964 2.01704 11.6787 1.90724C12.3743 1.80189 13.0756 1.73778 13.7787 1.71524C13.6024 1.4564 13.376 1.23552 13.1128 1.06566C12.8497 0.895789 12.5552 0.780378 12.2467 0.726239C11.3778 0.585828 10.4989 0.515602 9.61873 0.51624C6.79877 0.515854 4.02533 1.23485 1.56073 2.60524C1.12432 2.85491 0.776263 3.23401 0.564691 3.69011C0.35312 4.14622 0.288488 4.6568 0.379732 5.15123L1.54173 11.7192C2.06373 14.6662 6.53173 16.9192 9.02873 16.9192C9.15145 16.9182 9.27401 16.9099 9.39573 16.8942C8.80688 16.1361 8.32067 15.3036 7.94973 14.4182C6.20573 13.9532 4.06273 12.5372 3.84673 11.3252ZM7.42073 6.29824C7.39128 6.15268 7.34074 6.0122 7.27073 5.88123C6.91939 6.23321 6.46799 6.46819 5.97815 6.5541C5.4883 6.64 4.98388 6.57266 4.53373 6.36124C4.50608 6.57016 4.52396 6.78258 4.58613 6.98394C4.6483 7.1853 4.75329 7.37081 4.89391 7.52778C5.03452 7.68474 5.20743 7.80943 5.40077 7.89328C5.5941 7.97714 5.80329 8.01817 6.01398 8.01357C6.22466 8.00897 6.43186 7.95885 6.62136 7.86664C6.81085 7.77444 6.97816 7.64234 7.11179 7.47939C7.24542 7.31644 7.34223 7.12651 7.39555 6.92263C7.44888 6.71875 7.45747 6.50575 7.42073 6.29824ZM22.5557 4.95824C19.3047 3.15174 15.5412 2.48932 11.8687 3.07723C11.3751 3.15517 10.9184 3.38606 10.563 3.73734C10.2076 4.08862 9.97143 4.54258 9.88773 5.03524L8.72373 11.6352C8.16073 14.8252 12.2137 18.8222 14.5237 19.2252C16.7977 19.6332 22.0107 17.2602 22.5747 14.0702L23.7367 7.49823C23.8285 7.00462 23.764 6.49468 23.5523 6.03942C23.3406 5.58416 22.9923 5.20623 22.5557 4.95824ZM12.5497 8.50223C12.6249 8.12764 12.8433 7.79719 13.1585 7.58126C13.4737 7.36532 13.8607 7.28096 14.2372 7.34613C14.6136 7.41131 14.9498 7.62088 15.174 7.93021C15.3982 8.23954 15.4929 8.62418 15.4377 9.00223C15.4088 9.14935 15.3579 9.29128 15.2867 9.42324C14.935 9.07194 14.484 8.83704 13.9945 8.75031C13.505 8.66358 13.0007 8.72918 12.5497 8.93824C12.514 8.7951 12.514 8.64537 12.5497 8.50223ZM15.0977 15.7772C14.1419 15.6216 13.2785 15.1153 12.676 14.3571C12.0736 13.599 11.7754 12.6435 11.8397 11.6772C12.8084 12.7115 14.0864 13.4035 15.4818 13.6494C16.8773 13.8954 18.3149 13.682 19.5787 13.0412C19.3103 13.9757 18.7009 14.7753 17.8711 15.2819C17.0413 15.7886 16.0516 15.9653 15.0977 15.7772ZM19.9047 10.2382C19.5524 9.88655 19.1003 9.65183 18.6099 9.56595C18.1196 9.48008 17.6146 9.54721 17.1637 9.75823C17.1409 9.61111 17.1409 9.46135 17.1637 9.31423C17.2378 8.93824 17.4563 8.60628 17.7723 8.38959C18.0884 8.17291 18.4768 8.08879 18.8542 8.15529C19.2316 8.22179 19.5679 8.43361 19.7908 8.74527C20.0138 9.05694 20.1057 9.44359 20.0467 9.82224C20.0163 9.96664 19.9672 10.1065 19.9007 10.2382H19.9047Z" fill="#C9E265"/>
</svg>
