<svg width="22" height="19" viewBox="0 0 22 19" fill="none" xmlns="http://www.w3.org/2000/svg">
<path d="M21.1982 6.24051C21.1963 5.23163 20.8955 4.24593 20.3338 3.40786C19.7721 2.5698 18.9747 1.91696 18.0422 1.53178C17.1098 1.1466 16.0841 1.04634 15.0947 1.24367C14.1053 1.441 13.1965 1.92708 12.4832 2.64051L11.0092 4.07852L9.53519 2.64051C9.07844 2.10524 8.51587 1.67029 7.88286 1.36299C7.24985 1.0557 6.5601 0.882713 5.857 0.854929C5.15389 0.827146 4.45264 0.94516 3.79736 1.20155C3.14208 1.45794 2.54694 1.84715 2.04938 2.34471C1.55182 2.84227 1.16261 3.43741 0.906218 4.09269C0.649831 4.74797 0.53182 5.44922 0.559603 6.15233C0.587387 6.85544 0.760365 7.54519 1.06766 8.17819C1.37496 8.8112 1.80992 9.37378 2.34519 9.83052L2.98519 10.4705H1.66218C1.45635 10.4778 1.26138 10.5647 1.11835 10.7129C0.975312 10.8611 0.895377 11.0591 0.895377 11.265C0.895377 11.471 0.975312 11.6689 1.11835 11.8171C1.26138 11.9653 1.45635 12.0522 1.66218 12.0595H4.53818L10.4562 17.9845C10.5291 18.0581 10.6158 18.1165 10.7114 18.1564C10.807 18.1963 10.9096 18.2168 11.0132 18.2168C11.1168 18.2168 11.2193 18.1963 11.3149 18.1564C11.4105 18.1165 11.4973 18.0581 11.5702 17.9845L17.4802 12.0595H20.3562C20.4658 12.0699 20.5765 12.0572 20.6809 12.0223C20.7854 11.9875 20.8814 11.9312 20.9629 11.857C21.0444 11.7829 21.1094 11.6926 21.154 11.5918C21.1985 11.4911 21.2215 11.3822 21.2215 11.272C21.2215 11.1619 21.1985 11.053 21.154 10.9522C21.1094 10.8515 21.0444 10.7611 20.9629 10.687C20.8814 10.6129 20.7854 10.5566 20.6809 10.5217C20.5765 10.4868 20.4658 10.4742 20.3562 10.4845H19.0632L19.7032 9.84452C20.1812 9.37337 20.5602 8.81136 20.8178 8.19156C21.0754 7.57177 21.2064 6.90671 21.2032 6.23552L21.1982 6.24051ZM11.0102 16.3065L6.74919 12.0505C6.8616 12.0433 6.97115 12.012 7.07037 11.9587C7.1696 11.9054 7.25617 11.8313 7.32419 11.7415L8.66119 9.95851L10.2862 13.7405C10.337 13.8584 10.4161 13.962 10.5163 14.0422C10.6166 14.1224 10.735 14.1768 10.8612 14.2005H11.0122C11.22 14.2003 11.4193 14.1176 11.5662 13.9705L14.6002 10.9505L15.4842 11.8345L11.0102 16.3065ZM18.5882 8.73552L16.8332 10.4825H16.3662L15.1582 9.27452C15.01 9.1276 14.8098 9.04515 14.6012 9.04515C14.3925 9.04515 14.1923 9.1276 14.0442 9.27452L11.2692 12.0495L9.56919 8.08751C9.51572 7.95994 9.42945 7.8488 9.31914 7.76535C9.20883 7.6819 9.07841 7.62911 8.94111 7.61235C8.80381 7.5956 8.66452 7.61547 8.53737 7.66994C8.41023 7.72441 8.29976 7.81155 8.21718 7.92252L6.29719 10.4825H5.18619L3.43218 8.73552C2.77047 8.07381 2.39872 7.17632 2.39872 6.24051C2.39872 5.3047 2.77047 4.40723 3.43218 3.74552C4.0939 3.0838 4.99138 2.71205 5.92718 2.71205C6.86299 2.71205 7.76047 3.0838 8.42219 3.74552L10.4572 5.78052C10.6053 5.92745 10.8055 6.00989 11.0142 6.00989C11.2228 6.00989 11.423 5.92745 11.5712 5.78052L13.5992 3.74552C13.9268 3.41787 14.3158 3.15796 14.7439 2.98064C15.172 2.80332 15.6308 2.71205 16.0942 2.71205C16.5575 2.71205 17.0164 2.80332 17.4445 2.98064C17.8726 3.15796 18.2615 3.41787 18.5892 3.74552C18.9168 4.07316 19.1767 4.46214 19.3541 4.89023C19.5314 5.31832 19.6226 5.77715 19.6226 6.24051C19.6226 6.70388 19.5314 7.16271 19.3541 7.59081C19.1767 8.0189 18.9168 8.40787 18.5892 8.73552H18.5882Z" fill="#FF9190"/>
</svg>
