<svg width="35" height="36" viewBox="0 0 35 36" fill="none" xmlns="http://www.w3.org/2000/svg">
<path d="M12.3261 0.760864H4.23913C3.16771 0.764064 2.1411 1.1911 1.38349 1.94871C0.625884 2.70631 0.198848 3.73293 0.195648 4.80434V12.8913C0.198848 13.9627 0.625884 14.9893 1.38349 15.7469C2.1411 16.5045 3.16771 16.9316 4.23913 16.9348H12.3261C13.3975 16.9316 14.4241 16.5045 15.1817 15.7469C15.9393 14.9893 16.3664 13.9627 16.3696 12.8913V4.80434C16.3664 3.73293 15.9393 2.70631 15.1817 1.94871C14.4241 1.1911 13.3975 0.764064 12.3261 0.760864ZM12.3261 12.8913H4.23913V4.80434H12.3261V12.8913ZM12.3261 18.9565H4.23913C3.16771 18.9597 2.1411 19.3868 1.38349 20.1444C0.625884 20.902 0.198848 21.9286 0.195648 23V31.087C0.198848 32.1584 0.625884 33.185 1.38349 33.9426C2.1411 34.7002 3.16771 35.1272 4.23913 35.1304H12.3261C13.3975 35.1272 14.4241 34.7002 15.1817 33.9426C15.9393 33.185 16.3664 32.1584 16.3696 31.087V23C16.3664 21.9286 15.9393 20.902 15.1817 20.1444C14.4241 19.3868 13.3975 18.9597 12.3261 18.9565ZM12.3261 31.087H4.23913V23H12.3261V31.087ZM30.5217 0.760864H22.4348C21.3634 0.764064 20.3367 1.1911 19.5791 1.94871C18.8215 2.70631 18.3945 3.73293 18.3913 4.80434V12.8913C18.3945 13.9627 18.8215 14.9893 19.5791 15.7469C20.3367 16.5045 21.3634 16.9316 22.4348 16.9348H30.5217C31.5931 16.9316 32.6198 16.5045 33.3774 15.7469C34.135 14.9893 34.562 13.9627 34.5652 12.8913V4.80434C34.562 3.73293 34.135 2.70631 33.3774 1.94871C32.6198 1.1911 31.5931 0.764064 30.5217 0.760864ZM30.5217 12.8913H22.4348V4.80434H30.5217V12.8913ZM7.27173 10.8696H9.29347C9.55566 10.8516 9.80248 10.7393 9.98831 10.5535C10.1741 10.3677 10.2864 10.1209 10.3043 9.85869V7.83695C10.2864 7.57477 10.1741 7.32795 9.98831 7.14212C9.80248 6.95629 9.55566 6.84403 9.29347 6.82608H7.27173C7.00955 6.84403 6.76273 6.95629 6.5769 7.14212C6.39108 7.32795 6.27881 7.57477 6.26087 7.83695V9.85869C6.27881 10.1209 6.39108 10.3677 6.5769 10.5535C6.76273 10.7393 7.00955 10.8516 7.27173 10.8696ZM7.27173 29.0652H9.29347C9.55566 29.0473 9.80248 28.935 9.98831 28.7492C10.1741 28.5633 10.2864 28.3165 10.3043 28.0543V26.0326C10.2864 25.7704 10.1741 25.5236 9.98831 25.3378C9.80248 25.1519 9.55566 25.0397 9.29347 25.0217H7.27173C7.00955 25.0397 6.76273 25.1519 6.5769 25.3378C6.39108 25.5236 6.27881 25.7704 6.26087 26.0326V28.0543C6.27881 28.3165 6.39108 28.5633 6.5769 28.7492C6.76273 28.935 7.00955 29.0473 7.27173 29.0652ZM25.4674 10.8696H27.4891C27.7513 10.8516 27.9981 10.7393 28.184 10.5535C28.3698 10.3677 28.482 10.1209 28.5 9.85869V7.83695C28.482 7.57477 28.3698 7.32795 28.184 7.14212C27.9981 6.95629 27.7513 6.84403 27.4891 6.82608H25.4674C25.2052 6.84403 24.9584 6.95629 24.7726 7.14212C24.5867 7.32795 24.4745 7.57477 24.4565 7.83695V9.85869C24.4745 10.1209 24.5867 10.3677 24.7726 10.5535C24.9584 10.7393 25.2052 10.8516 25.4674 10.8696ZM19.4022 27.0435H21.4239C21.6861 27.0255 21.9329 26.9133 22.1187 26.7274C22.3046 26.5416 22.4168 26.2948 22.4348 26.0326V24.0109C22.4527 23.7487 22.565 23.5019 22.7508 23.316C22.9366 23.1302 23.1835 23.0179 23.4456 23H25.4674C25.7296 22.982 25.9764 22.8698 26.1622 22.684C26.348 22.4981 26.4603 22.2513 26.4783 21.9891V19.9674C26.4603 19.7052 26.348 19.4584 26.1622 19.2726C25.9764 19.0867 25.7296 18.9745 25.4674 18.9565H19.4022C19.14 18.9745 18.8932 19.0867 18.7073 19.2726C18.5215 19.4584 18.4092 19.7052 18.3913 19.9674V26.0326C18.4092 26.2948 18.5215 26.5416 18.7073 26.7274C18.8932 26.9133 19.14 27.0255 19.4022 27.0435ZM33.5543 18.9565H31.5326C31.2704 18.9745 31.0236 19.0867 30.8378 19.2726C30.6519 19.4584 30.5397 19.7052 30.5217 19.9674V26.0326C30.5397 26.2948 30.6519 26.5416 30.8378 26.7274C31.0236 26.9133 31.2704 27.0255 31.5326 27.0435H33.5543C33.8165 27.0255 34.0633 26.9133 34.2492 26.7274C34.435 26.5416 34.5473 26.2948 34.5652 26.0326V19.9674C34.5473 19.7052 34.435 19.4584 34.2492 19.2726C34.0633 19.0867 33.8165 18.9745 33.5543 18.9565ZM21.4239 31.087H19.4022C19.14 31.1049 18.8932 31.2172 18.7073 31.403C18.5215 31.5888 18.4092 31.8356 18.3913 32.0978V34.1196C18.4092 34.3817 18.5215 34.6286 18.7073 34.8144C18.8932 35.0002 19.14 35.1125 19.4022 35.1304H21.4239C21.6861 35.1125 21.9329 35.0002 22.1187 34.8144C22.3046 34.6286 22.4168 34.3817 22.4348 34.1196V32.0978C22.4168 31.8356 22.3046 31.5888 22.1187 31.403C21.9329 31.2172 21.6861 31.1049 21.4239 31.087ZM33.5543 31.087H31.5326C31.2704 31.069 31.0236 30.9567 30.8378 30.7709C30.6519 30.5851 30.5397 30.3383 30.5217 30.0761V28.0543C30.5038 27.7922 30.3915 27.5453 30.2057 27.3595C30.0199 27.1737 29.773 27.0614 29.5109 27.0435H23.4456C23.1835 27.0614 22.9366 27.1737 22.7508 27.3595C22.565 27.5453 22.4527 27.7922 22.4348 28.0543V30.0761C22.4527 30.3383 22.565 30.5851 22.7508 30.7709C22.9366 30.9567 23.1835 31.069 23.4456 31.087H25.4674C25.7296 31.1049 25.9764 31.2172 26.1622 31.403C26.348 31.5888 26.4603 31.8356 26.4783 32.0978V34.1196C26.4962 34.3817 26.6085 34.6286 26.7943 34.8144C26.9801 35.0002 27.2269 35.1125 27.4891 35.1304H33.5543C33.8165 35.1125 34.0633 35.0002 34.2492 34.8144C34.435 34.6286 34.5473 34.3817 34.5652 34.1196V32.0978C34.5473 31.8356 34.435 31.5888 34.2492 31.403C34.0633 31.2172 33.8165 31.1049 33.5543 31.087Z" fill="white"/>
</svg>
