<svg width="24" height="15" viewBox="0 0 24 15" fill="none" xmlns="http://www.w3.org/2000/svg">
<path d="M23.1318 1.74705C23.1318 1.74409 23.1318 1.74113 23.1318 1.74113C23.1318 1.73818 23.1318 1.73227 23.1288 1.72931C23.1288 1.7234 23.1288 1.71453 23.1259 1.70862C23.1259 1.7027 23.1229 1.69679 23.1229 1.69088C23.1229 1.68792 23.1229 1.68497 23.1199 1.67906C23.1199 1.6761 23.1199 1.67314 23.117 1.67314C23.114 1.65836 23.1111 1.64358 23.1051 1.6288C23.1051 1.62585 23.1051 1.62289 23.1022 1.61993C23.1022 1.61993 23.1022 1.61993 23.1022 1.61698V1.61402C23.0963 1.59629 23.0904 1.57855 23.0844 1.56377V1.56081C23.0844 1.55786 23.0815 1.5549 23.0815 1.5549C23.0785 1.54603 23.0726 1.53716 23.0696 1.5283C23.0667 1.52238 23.0637 1.51943 23.0608 1.51352C23.0608 1.51056 23.0578 1.5076 23.0578 1.5076C23.0578 1.50465 23.0549 1.50169 23.0549 1.50169C23.0489 1.48987 23.0401 1.47804 23.0312 1.46326C23.0282 1.46031 23.0282 1.45735 23.0253 1.45439L23.0223 1.45144L23.0193 1.44848C23.0105 1.4337 22.9986 1.42188 22.9898 1.4071C22.9898 1.4071 22.9898 1.4071 22.9898 1.40414C22.9868 1.40118 22.9868 1.40118 22.9838 1.39823C22.9779 1.38936 22.9691 1.38049 22.9631 1.37458C22.9602 1.37162 22.9572 1.36867 22.9543 1.36571C22.9513 1.36276 22.9513 1.36276 22.9483 1.3598C22.9454 1.35684 22.9424 1.35389 22.9395 1.35389C22.9306 1.34502 22.9188 1.33615 22.9099 1.32728C22.9069 1.32433 22.904 1.32137 22.901 1.32137L22.898 1.31841C22.8951 1.31546 22.8951 1.31546 22.8921 1.3125C22.8685 1.29181 22.8418 1.27407 22.8122 1.25929C22.8093 1.25634 22.8063 1.25634 22.8034 1.25338L22.8004 1.25042C22.7975 1.25042 22.7945 1.24747 22.7915 1.24747C22.7797 1.24156 22.7679 1.23564 22.7531 1.22973C22.7501 1.22973 22.7472 1.22678 22.7442 1.22382C22.7412 1.22382 22.7383 1.22086 22.7383 1.22086C22.7353 1.22086 22.7324 1.21791 22.7294 1.21791C22.7176 1.21199 22.7057 1.20904 22.6939 1.20608C22.6909 1.20608 22.6909 1.20313 22.688 1.20313C22.6732 1.19721 22.6554 1.19426 22.6406 1.1913C22.6377 1.1913 22.6347 1.1913 22.6347 1.1913H22.6318C22.6288 1.1913 22.6259 1.1913 22.6229 1.1913C22.6081 1.18835 22.5933 1.18539 22.5785 1.18539C22.5756 1.18539 22.5726 1.18539 22.5726 1.18539C22.5696 1.18539 22.5667 1.18539 22.5667 1.18539C22.5608 1.18539 22.5578 1.18539 22.5519 1.18243C22.543 1.18243 22.5312 1.18243 22.5223 1.18243C22.5193 1.18243 22.5164 1.18243 22.5134 1.18243H22.5105C22.4927 1.18243 22.475 1.18243 22.4572 1.18539C22.4543 1.18539 22.4543 1.18539 22.4513 1.18539C22.4335 1.18835 22.4158 1.1913 22.398 1.19426C22.3951 1.19426 22.3951 1.19426 22.3921 1.19426C22.3892 1.19426 22.3862 1.19426 22.3862 1.19721C22.3803 1.19721 22.3744 1.20017 22.3685 1.20017C22.3596 1.20313 22.3507 1.20608 22.3418 1.20904C22.3389 1.20904 22.3359 1.20904 22.333 1.21199H22.33C22.3122 1.21791 22.2945 1.22382 22.2767 1.22973C22.2767 1.22973 22.2738 1.22973 22.2738 1.23269C22.256 1.2386 22.2412 1.24747 22.2264 1.25634C22.2264 1.25634 22.2235 1.25634 22.2235 1.25929C22.2205 1.25929 22.2205 1.26225 22.2176 1.26225C22.2117 1.2652 22.2028 1.26816 22.1969 1.27407C22.1909 1.27703 22.185 1.28294 22.1762 1.2859C22.1732 1.2859 22.1732 1.28885 22.1702 1.28885L22.1673 1.29181C22.1495 1.30363 22.1347 1.31546 22.1199 1.32728C22.1051 1.33911 22.0933 1.35093 22.0785 1.36571L22.0756 1.36867C22.0726 1.37162 22.0726 1.37162 22.0696 1.37458C22.0637 1.38049 22.0578 1.3864 22.0519 1.39232C21.9513 1.50465 19.6051 4.1799 19.904 8.51943C19.904 8.54012 19.9069 8.55786 19.9099 8.57855C19.9128 8.59924 19.9158 8.61698 19.9217 8.63767C19.9276 8.65541 19.9335 8.6761 19.9395 8.69384C19.9454 8.71157 19.9543 8.72931 19.9631 8.74705C19.972 8.76478 19.9809 8.78252 19.9898 8.80026C19.9986 8.81799 20.0105 8.83277 20.0223 8.85051C20.0341 8.86529 20.046 8.88303 20.0608 8.89781C20.0726 8.91259 20.0874 8.92737 20.1022 8.93919C20.117 8.95397 20.1318 8.9658 20.1466 8.97762C20.1614 8.98944 20.1791 9.00127 20.1939 9.01014C20.2117 9.02196 20.2264 9.03083 20.2442 9.0397C20.262 9.04857 20.2797 9.05743 20.2975 9.06335C20.3152 9.06926 20.333 9.07813 20.3537 9.08108C20.3714 9.087 20.3921 9.08995 20.4099 9.09586C20.4306 9.09882 20.4483 9.10178 20.4691 9.10473C20.4898 9.10769 20.5075 9.10769 20.5282 9.10769H21.8862V13.2994C21.8862 13.3201 21.8862 13.3408 21.8892 13.3615C21.8921 13.3822 21.8951 13.4029 21.898 13.4236C21.901 13.4443 21.9069 13.465 21.9128 13.4827C21.9188 13.5034 21.9247 13.5211 21.9335 13.5418C21.9424 13.5595 21.9513 13.5802 21.9602 13.598C21.9691 13.6157 21.9809 13.6334 21.9927 13.6512C22.0046 13.6689 22.0164 13.6837 22.0282 13.7014C22.0401 13.7162 22.0549 13.734 22.0696 13.7458C22.0844 13.7606 22.0992 13.7753 22.117 13.7872C22.1318 13.799 22.1495 13.8138 22.1673 13.8226C22.185 13.8345 22.2028 13.8433 22.2205 13.8552C22.2383 13.864 22.256 13.8729 22.2767 13.8818C22.2945 13.8906 22.3152 13.8965 22.3359 13.9025C22.3566 13.9084 22.3744 13.9143 22.3951 13.9172C22.4158 13.9202 22.4365 13.9231 22.4572 13.9261C22.4779 13.9291 22.4986 13.9291 22.5193 13.9291C22.5401 13.9291 22.5608 13.9291 22.5815 13.9261C22.6022 13.9231 22.6229 13.9202 22.6436 13.9172C22.6643 13.9143 22.685 13.9084 22.7028 13.9025C22.7205 13.8965 22.7412 13.8906 22.762 13.8818C22.7797 13.8729 22.8004 13.864 22.8182 13.8552C22.8359 13.8463 22.8537 13.8345 22.8714 13.8226C22.8892 13.8108 22.904 13.799 22.9217 13.7872C22.9365 13.7753 22.9543 13.7606 22.9661 13.7458C22.9809 13.731 22.9957 13.7162 23.0075 13.7014C23.0193 13.6867 23.0341 13.6689 23.043 13.6512C23.0549 13.6334 23.0637 13.6157 23.0756 13.598C23.0844 13.5802 23.0933 13.5625 23.1022 13.5418C23.1111 13.5241 23.117 13.5034 23.1229 13.4827C23.1288 13.462 23.1347 13.4443 23.1377 13.4236C23.1406 13.4029 23.1436 13.3822 23.1466 13.3615C23.1495 13.3408 23.1495 13.3201 23.1495 13.2994V8.46917V1.80321C23.1347 1.78547 23.1318 1.76478 23.1318 1.74705ZM21.1199 7.83953C21.117 7.51732 21.1318 7.19806 21.1614 6.8788C21.1909 6.55955 21.2383 6.24325 21.3004 5.92694C21.3625 5.6136 21.4424 5.30026 21.5371 4.99578C21.6318 4.68835 21.7442 4.38978 21.8685 4.09417V7.83953H21.1199Z" fill="#DAB1F8"/>
<path d="M5.12589 1.73519C5.12293 1.7145 5.11701 1.69381 5.1111 1.67607C5.10518 1.65538 5.09926 1.63764 5.09039 1.61695C5.08151 1.59921 5.07264 1.57852 5.06376 1.56078C5.05488 1.54305 5.04305 1.52531 5.03122 1.50757C5.01938 1.48984 5.00755 1.47506 4.99571 1.45732C4.98388 1.43958 4.96909 1.4248 4.95429 1.41002C4.9395 1.39524 4.92471 1.38046 4.90696 1.36864C4.89216 1.35681 4.87441 1.34203 4.85666 1.33316C4.83891 1.32134 4.82116 1.31247 4.8034 1.30065C4.78565 1.29178 4.7679 1.28291 4.74719 1.27404C4.72944 1.26517 4.70873 1.25926 4.68802 1.25335C4.66731 1.24744 4.64956 1.24153 4.62885 1.23857C4.60814 1.23561 4.58743 1.23266 4.56672 1.2297C4.54601 1.22675 4.5253 1.22675 4.50459 1.22675C4.48388 1.22675 4.46317 1.22675 4.44246 1.2297C4.42175 1.23266 4.40104 1.23561 4.38033 1.23857C4.35962 1.24153 4.33891 1.24744 4.32116 1.25335C4.30045 1.25926 4.28269 1.26517 4.26198 1.27404C4.24423 1.28291 4.22352 1.29178 4.20577 1.30065C4.18802 1.30952 4.17027 1.32134 4.15252 1.33316C4.13477 1.34499 4.11997 1.35681 4.10222 1.36864C4.08743 1.38046 4.06968 1.39524 4.05488 1.41002C4.04009 1.4248 4.0253 1.43958 4.01346 1.45732C4.00163 1.4721 3.98684 1.48984 3.97796 1.50757C3.96613 1.52531 3.95725 1.54305 3.94542 1.56078C3.93654 1.57852 3.92767 1.59626 3.91879 1.61695C3.90991 1.63468 3.904 1.65538 3.89808 1.67607C3.89216 1.69676 3.88624 1.7145 3.88329 1.73519C3.88033 1.75588 3.87737 1.77658 3.87441 1.79727C3.87145 1.81796 3.87145 1.83865 3.87145 1.85935V5.31796C3.87145 5.3357 3.87145 5.35344 3.86849 5.37117C3.86553 5.38891 3.86554 5.40664 3.85962 5.42438C3.85666 5.44212 3.85074 5.45985 3.84778 5.47759C3.84187 5.49533 3.83595 5.51011 3.83003 5.52784C3.82411 5.54558 3.81524 5.56036 3.80636 5.57514C3.79749 5.58992 3.78861 5.60766 3.77974 5.62244C3.77086 5.63722 3.75903 5.652 3.74719 5.66678C3.73536 5.68156 3.72352 5.69338 3.71169 5.70816C3.69985 5.71999 3.68506 5.73181 3.67323 5.74364C3.65843 5.75546 3.64364 5.76433 3.62885 5.77615C3.61406 5.78502 3.59926 5.79389 3.58151 5.80276C3.56672 5.81163 3.54897 5.81754 3.53417 5.82641C3.51642 5.83232 3.50163 5.83823 3.48388 5.84414C3.46613 5.85006 3.44838 5.85301 3.43062 5.85597C3.41287 5.85892 3.39512 5.86188 3.37737 5.86484C3.35962 5.86779 3.34187 5.86779 3.32411 5.86779H1.94246C1.92471 5.86779 1.90696 5.86779 1.8892 5.86484C1.87145 5.86188 1.8537 5.85892 1.83595 5.85597C1.8182 5.85301 1.80045 5.8471 1.78269 5.84414C1.76494 5.83823 1.75015 5.83232 1.7324 5.82641C1.71465 5.8205 1.69985 5.81163 1.68506 5.80276C1.67027 5.79389 1.65252 5.78502 1.63772 5.77615C1.62293 5.76729 1.60814 5.75546 1.59335 5.74364C1.57855 5.73181 1.56672 5.71999 1.55488 5.70816C1.54305 5.69634 1.53122 5.68156 1.51938 5.66974C1.50755 5.65496 1.49867 5.64017 1.48684 5.62539C1.47796 5.61061 1.46909 5.59583 1.46021 5.5781C1.45133 5.56332 1.44542 5.54558 1.43654 5.5308C1.43062 5.51306 1.42471 5.49828 1.41879 5.48055C1.41287 5.46281 1.40991 5.44507 1.40696 5.42734C1.404 5.4096 1.40104 5.39186 1.39808 5.37413C1.39512 5.35639 1.39512 5.33865 1.39512 5.32092V1.8623C1.39512 1.84161 1.39512 1.82092 1.39216 1.80023C1.3892 1.77953 1.38625 1.75884 1.38329 1.73815C1.38033 1.71746 1.37441 1.69676 1.36849 1.67903C1.36258 1.65833 1.35666 1.6406 1.34778 1.6199C1.33891 1.60217 1.33003 1.58148 1.32116 1.56374C1.31228 1.546 1.30045 1.52827 1.28861 1.51053C1.27678 1.49279 1.26494 1.47801 1.25311 1.46028C1.24127 1.4455 1.22648 1.42776 1.21169 1.41298C1.1969 1.3982 1.1821 1.38342 1.16435 1.37159C1.14956 1.35977 1.13181 1.34499 1.11406 1.33612C1.0963 1.3243 1.07855 1.31543 1.0608 1.3036C1.04305 1.29474 1.0253 1.28587 1.00459 1.277C0.986837 1.26813 0.966127 1.26222 0.945417 1.25631C0.924706 1.25039 0.906955 1.24448 0.886245 1.24153C0.865535 1.23857 0.844825 1.23561 0.824115 1.23266C0.803405 1.2297 0.782695 1.2297 0.761985 1.2297C0.741275 1.2297 0.720564 1.2297 0.699854 1.23266C0.679144 1.23561 0.658434 1.23857 0.637724 1.24153C0.617014 1.24448 0.596304 1.25039 0.578553 1.25631C0.557843 1.26222 0.540091 1.26813 0.519381 1.277C0.50163 1.28587 0.480919 1.29474 0.463168 1.3036C0.445417 1.31247 0.427665 1.3243 0.409914 1.33612C0.392162 1.34794 0.377369 1.35977 0.359618 1.37159C0.344825 1.38342 0.327073 1.3982 0.315239 1.41298C0.300446 1.42776 0.285653 1.44254 0.273819 1.46028C0.264943 1.47506 0.253109 1.49279 0.241274 1.51053C0.22944 1.52827 0.220564 1.546 0.20873 1.56374C0.199854 1.58148 0.190979 1.59921 0.182103 1.6199C0.173227 1.63764 0.16731 1.65833 0.161393 1.67903C0.155476 1.69972 0.149559 1.71746 0.1466 1.73815C0.143641 1.75884 0.140683 1.77953 0.137724 1.80023C0.134766 1.81796 0.134766 1.83865 0.134766 1.85935V5.31796C0.134766 5.37708 0.137724 5.4362 0.143641 5.49533C0.149559 5.55445 0.158434 5.61357 0.170269 5.66974C0.182103 5.72886 0.196896 5.78502 0.214647 5.84119C0.232399 5.89735 0.253109 5.95352 0.273819 6.00673C0.297488 6.05994 0.321156 6.1161 0.350742 6.16636C0.377369 6.21957 0.409914 6.26982 0.442458 6.31712C0.475002 6.36737 0.510505 6.41467 0.548967 6.45901C0.587428 6.50335 0.62589 6.54769 0.66731 6.58908C0.70873 6.63046 0.753109 6.67185 0.797487 6.70732C0.841866 6.74575 0.889204 6.78122 0.939499 6.81374C0.989795 6.84626 1.04009 6.87582 1.09039 6.90538C1.14364 6.93198 1.1969 6.95859 1.25015 6.98224C1.3034 7.00588 1.35962 7.02362 1.41583 7.04136C1.47204 7.05909 1.53122 7.07387 1.58743 7.0857C1.6466 7.09752 1.70281 7.10639 1.76198 7.1123C1.82116 7.11822 1.88033 7.12117 1.9395 7.12117H2.00163V13.2284C2.00163 13.2491 2.00163 13.2698 2.00459 13.2905C2.00755 13.3112 2.01051 13.3319 2.01346 13.3526C2.01642 13.3733 2.02234 13.394 2.02826 13.4117C2.03417 13.4324 2.04009 13.4501 2.04897 13.4708C2.05784 13.4886 2.06672 13.5093 2.07559 13.527C2.08447 13.5447 2.0963 13.5625 2.10814 13.5802C2.11997 13.5979 2.13181 13.6127 2.14364 13.6305C2.15548 13.6452 2.17027 13.663 2.18506 13.6748C2.19985 13.6896 2.21465 13.7044 2.2324 13.7162C2.24719 13.728 2.26494 13.7428 2.28269 13.7517C2.30045 13.7635 2.3182 13.7724 2.33595 13.7842C2.3537 13.793 2.37145 13.8019 2.39216 13.8108C2.40991 13.8197 2.43062 13.8256 2.45133 13.8315C2.47204 13.8374 2.4898 13.8433 2.51051 13.8463C2.53122 13.8492 2.55193 13.8522 2.57264 13.8551C2.59335 13.8581 2.61406 13.8581 2.63477 13.8581C2.65548 13.8581 2.67619 13.8581 2.6969 13.8551C2.71761 13.8522 2.73832 13.8492 2.75903 13.8463C2.77974 13.8433 2.80045 13.8374 2.8182 13.8315C2.83891 13.8256 2.85666 13.8197 2.87737 13.8108C2.89512 13.8019 2.91583 13.793 2.93358 13.7842C2.95133 13.7753 2.96909 13.7635 2.98684 13.7517C3.00459 13.7398 3.01938 13.728 3.03713 13.7162C3.05193 13.7044 3.06968 13.6896 3.08151 13.6748C3.0963 13.66 3.1111 13.6452 3.12293 13.6305C3.13477 13.6157 3.14956 13.5979 3.15843 13.5802C3.17027 13.5625 3.17914 13.5447 3.19098 13.527C3.19985 13.5093 3.20873 13.4915 3.21761 13.4708C3.22648 13.4531 3.2324 13.4324 3.23832 13.4117C3.24423 13.391 3.25015 13.3733 3.25311 13.3526C3.25607 13.3319 3.25903 13.3112 3.26198 13.2905C3.26494 13.2698 3.26494 13.2491 3.26494 13.2284V7.12708H3.32707C3.38625 7.12708 3.44542 7.12413 3.50459 7.11822C3.56376 7.1123 3.62293 7.10344 3.67914 7.09161C3.73832 7.07979 3.79453 7.06501 3.85074 7.04727C3.90696 7.02953 3.96317 7.00884 4.01642 6.98815C4.06968 6.9645 4.12589 6.94085 4.17619 6.91129C4.22648 6.88173 4.27974 6.85217 4.32707 6.81965C4.37737 6.78713 4.42471 6.75166 4.46909 6.71323C4.51346 6.6748 4.55784 6.63637 4.59926 6.59499C4.64068 6.5536 4.6821 6.50926 4.71761 6.46492C4.75607 6.41762 4.79157 6.37033 4.82411 6.32303C4.85666 6.27278 4.88625 6.22252 4.91583 6.17227C4.94246 6.11906 4.96909 6.06585 4.99275 6.01264C5.01642 5.95648 5.03417 5.90327 5.05193 5.8471C5.06968 5.79094 5.08447 5.73181 5.0963 5.67565C5.10814 5.61653 5.11701 5.56036 5.12293 5.50124C5.12885 5.44212 5.13181 5.383 5.13181 5.32387V1.86526C5.13181 1.84457 5.13181 1.82387 5.12885 1.80318C5.13181 1.77658 5.12885 1.75588 5.12589 1.73519Z" fill="#DAB1F8"/>
<path d="M12.1614 0.546875C8.29753 0.546875 5.15552 3.68623 5.15552 7.54688C5.15552 11.4075 8.29753 14.5469 12.1614 14.5469C16.0253 14.5469 19.1674 11.4075 19.1674 7.54688C19.1674 3.68623 16.0253 0.546875 12.1614 0.546875Z" fill="#DAB1F8"/>
<path d="M2.01644 4.72083C2.0194 4.74153 2.02532 4.76222 2.03124 4.77995C2.03715 4.80065 2.04307 4.81838 2.05195 4.83908C2.06082 4.85681 2.0697 4.87751 2.07857 4.89524C2.08745 4.91298 2.09928 4.93071 2.11112 4.94845C2.12295 4.96619 2.13479 4.98097 2.14662 4.99871C2.15846 5.01349 2.17325 5.03122 2.18804 5.04305C2.20283 5.05783 2.21763 5.07261 2.23538 5.08443C2.25017 5.09626 2.26792 5.11104 2.28567 5.1199C2.30343 5.13173 2.32118 5.1406 2.33893 5.15242C2.35668 5.16129 2.37443 5.17016 2.39514 5.17903C2.41289 5.18789 2.4336 5.19381 2.45431 5.19972C2.47502 5.20563 2.49278 5.21154 2.51349 5.2145C2.5342 5.21745 2.55491 5.22041 2.57562 5.22337C2.59633 5.22632 2.61704 5.22632 2.63775 5.22632C2.65846 5.22632 2.67917 5.22632 2.69988 5.22337C2.72059 5.22041 2.7413 5.21745 2.76201 5.2145C2.78272 5.21154 2.80343 5.20563 2.82118 5.19972C2.84189 5.19381 2.85964 5.18789 2.88035 5.17903C2.8981 5.17016 2.91881 5.16129 2.93656 5.15242C2.95431 5.14355 2.97207 5.13173 2.98982 5.1199C3.00757 5.10808 3.02236 5.09626 3.04011 5.08443C3.05491 5.07261 3.07266 5.05783 3.08745 5.04305C3.10224 5.02827 3.11704 5.01349 3.12887 4.99575C3.1407 4.98097 3.1555 4.96323 3.16437 4.9455C3.17621 4.92776 3.18508 4.91002 3.19692 4.89229C3.20579 4.87455 3.21467 4.85681 3.22354 4.83612C3.23242 4.81838 3.23834 4.79769 3.24425 4.777C3.25017 4.75631 3.25609 4.73857 3.25905 4.71788C3.26201 4.69718 3.26496 4.67649 3.26792 4.6558C3.27088 4.63511 3.27088 4.61441 3.27088 4.59372V1.85935C3.27088 1.83865 3.27088 1.81796 3.26792 1.79727C3.26496 1.77658 3.26201 1.75588 3.25905 1.73519C3.25609 1.7145 3.25017 1.69381 3.24425 1.67607C3.23834 1.65538 3.23242 1.63764 3.22354 1.61695C3.21467 1.59921 3.20579 1.57852 3.19692 1.56078C3.18804 1.54305 3.17621 1.52531 3.16437 1.50757C3.15254 1.48984 3.1407 1.47506 3.12887 1.45732C3.11704 1.44254 3.10224 1.4248 3.08745 1.41002C3.07266 1.39524 3.05786 1.38046 3.04307 1.36864C3.02828 1.35681 3.01053 1.34203 2.99278 1.33316C2.97502 1.32134 2.95727 1.31247 2.93952 1.30065C2.92177 1.29178 2.90402 1.28291 2.88331 1.27404C2.86556 1.26517 2.84485 1.25926 2.82414 1.25335C2.80343 1.24744 2.78567 1.24153 2.76496 1.23857C2.74425 1.23561 2.72354 1.23266 2.70283 1.2297C2.68212 1.22675 2.66141 1.22675 2.6407 1.22675C2.61999 1.22675 2.59928 1.22675 2.57857 1.2297C2.55786 1.23266 2.53715 1.23561 2.51644 1.23857C2.49573 1.24153 2.47502 1.24744 2.45727 1.25335C2.43656 1.25926 2.41881 1.26517 2.3981 1.27404C2.38035 1.28291 2.35964 1.29178 2.34189 1.30065C2.32414 1.30952 2.30639 1.32134 2.28863 1.33316C2.27088 1.34499 2.25609 1.35681 2.23834 1.36864C2.22354 1.38046 2.20579 1.39524 2.191 1.41002C2.17621 1.4248 2.16141 1.43958 2.14958 1.45732C2.13775 1.4721 2.12295 1.48984 2.11408 1.50757C2.10224 1.52531 2.09337 1.54305 2.08153 1.56078C2.07266 1.57852 2.06378 1.59626 2.05491 1.61695C2.04603 1.63468 2.04011 1.65538 2.0342 1.67607C2.02828 1.69676 2.02236 1.7145 2.0194 1.73519C2.01644 1.75588 2.01349 1.77658 2.01053 1.79727C2.00757 1.81796 2.00757 1.83865 2.00757 1.85935V4.59668C2.00757 4.61737 2.00757 4.63806 2.01053 4.65876C2.01053 4.67945 2.01349 4.70014 2.01644 4.72083Z" fill="#DAB1F8"/>
</svg>
