<svg width="25" height="25" viewBox="0 0 25 25" fill="none" xmlns="http://www.w3.org/2000/svg">
<path d="M12.0494 14.5045C14.1514 14.5045 15.8554 12.8005 15.8554 10.6985C15.8554 8.59655 14.1514 6.89258 12.0494 6.89258C9.94748 6.89258 8.2435 8.59655 8.2435 10.6985C8.2435 12.8005 9.94748 14.5045 12.0494 14.5045Z" stroke="#CACACA" stroke-width="2" stroke-miterlimit="10" stroke-linecap="round" stroke-linejoin="round"/>
<path d="M18.6792 20.2747C18.6792 17.0826 16.101 14.5044 12.9089 14.5044H11.1287C7.93665 14.5044 5.35843 17.0826 5.35843 20.2747" stroke="#CACACA" stroke-width="2" stroke-miterlimit="10" stroke-linecap="round" stroke-linejoin="round"/>
<path d="M12.0495 23.099C18.152 23.099 23.099 18.152 23.099 12.0495C23.099 5.94703 18.152 1 12.0495 1C5.94703 1 1 5.94703 1 12.0495C1 18.152 5.94703 23.099 12.0495 23.099Z" stroke="#CACACA" stroke-width="2" stroke-miterlimit="10" stroke-linecap="round" stroke-linejoin="round"/>
</svg>
