<svg width="33" height="27" viewBox="0 0 33 27" fill="none" xmlns="http://www.w3.org/2000/svg">
<path d="M31.2124 19.749H24.0997C22.7411 19.749 21.7021 18.7462 21.7021 17.4348V16.509C21.7021 15.1976 22.7411 14.1948 24.0997 14.1948H31.2124V19.749Z" stroke="#F00E51" stroke-width="3" stroke-miterlimit="10" stroke-linecap="round" stroke-linejoin="round"/>
<path d="M31.2124 5.16905V4.62905C31.2124 2.93191 29.7738 1.54333 28.0156 1.54333H6.27793C4.20006 1.54333 2.44186 3.24048 2.44186 5.24619C2.44186 7.32905 4.20006 8.94905 6.27793 8.94905H28.0156C29.7738 8.94905 31.2124 10.3376 31.2124 12.0348V23.1433C31.2124 24.4548 30.1734 25.4576 28.8148 25.4576H7.23695C4.59965 25.4576 2.44186 23.3748 2.44186 20.829V5.47762C2.44186 3.31762 4.27998 1.54333 6.51768 1.54333H22.1017" stroke="#F00E51" stroke-width="3" stroke-miterlimit="10" stroke-linecap="round" stroke-linejoin="round"/>
</svg>
